<?xml version="1.0" encoding="utf-8"?>
<!-- Generator: Adobe Illustrator 16.0.0, SVG Export Plug-In . SVG Version: 6.00 Build 0)  -->
<!DOCTYPE svg PUBLIC "-//W3C//DTD SVG 1.1//EN" "http://www.w3.org/Graphics/SVG/1.1/DTD/svg11.dtd">
<svg version="1.1" id="Layer_1" xmlns="http://www.w3.org/2000/svg" xmlns:xlink="http://www.w3.org/1999/xlink" x="0px" y="0px"
	 width="1267.174px" height="1024px" viewBox="0 0 1267.174 1024" enable-background="new 0 0 1267.174 1024" xml:space="preserve">
<g>
	<polygon fill="#FFFFFF" stroke="#008F91" stroke-width="4" stroke-linejoin="round" stroke-miterlimit="10" points="243.27,-2.082 
		243.27,804.85 378.564,804.85 378.564,336.768 	"/>
	<path fill="#FFFFFF" stroke="#008F91" stroke-width="4" stroke-linejoin="round" stroke-miterlimit="10" d="M716.802,804.85
		H565.458L243.27-2.082h151.348l246.511,602.604L887.638-2.082h151.347L716.802,804.85z"/>
	<path fill="#FFFFFF" stroke="#008F91" stroke-width="4" stroke-linejoin="round" stroke-miterlimit="10" d="M1024.096,122.596
		V804.85H888.807V122.596H645.728V-2.082h621.446v124.678H1024.096z"/>
</g>
<g>
	<path fill="#FFFFFF" d="M247.708,1003.888v-195.62h77.662c36.01,0,54.014,20.518,54.014,61.554
		c0,22.366-4.682,38.375-14.041,48.025c-9.361,9.649-22.822,14.475-40.376,14.475h-50.118v71.566H247.708z M274.849,911.623h50.655
		c15.855,0,24.588-9.289,26.201-27.868c0.356-3.427,0.538-7.485,0.538-12.175c0-15.783-2.129-26.831-6.382-33.145
		c-4.255-6.313-10.816-9.47-19.685-9.47h-51.327V911.623z"/>
	<path fill="#FFFFFF" d="M435.238,999.717c-8.215-4.164-13.795-9.748-16.741-16.761c-2.949-7.004-4.421-15.369-4.421-25.093v-43.087
		c0-19.635,5.519-33.238,16.555-40.814c8.901-6.062,22.069-9.094,39.503-9.094c30.85,0,48.5,11.556,52.952,34.662
		c0.94,4.859,1.411,10.354,1.411,16.475v40.532c0,19.069-5.425,32.447-16.271,40.15c-8.717,6.186-21.007,9.282-36.87,9.282
		C455.491,1005.97,443.453,1003.888,435.238,999.717z M470.086,990.63c12.382,0,21.397-2.007,27.041-6.013
		c5.643-4.013,8.464-11.949,8.464-23.818V911.27c0-11.867-2.838-20.01-8.513-24.43c-5.675-4.419-14.657-6.628-26.945-6.628
		c-19.063,0-30.631,5.302-34.707,15.906c-1.568,4.044-2.352,9.095-2.352,15.151v49.529c0,11.809,3.072,19.73,9.217,23.766
		C448.437,988.608,457.701,990.63,470.086,990.63z"/>
	<path fill="#FFFFFF" d="M559.86,1003.888v-14.205h25.958V881.064H559.86v-14.11h70.729v14.11h-25.865v108.618h25.865v14.205H559.86
		z"/>
	<path fill="#FFFFFF" d="M668.964,1003.888V866.954h14.389l77.88,109.472V866.954h16.646v136.934h-16.835l-75.432-104.549v104.549
		H668.964z"/>
	<path fill="#FFFFFF" d="M845.508,1003.888V882.579h-39.223v-15.625h97.439v15.625h-39.309v121.309H845.508z"/>
	<path fill="#FFFFFF" d="M1021.106,965.438c0,27.019-14.833,40.532-44.49,40.532c-19.691,0-36.838-4.262-51.446-12.784l6.682-14.581
		c5.643,3.345,12.488,6.186,20.55,8.523c8.055,2.329,15.892,3.502,23.514,3.502c7.614,0,13.369-0.977,17.258-2.938
		c6.958-3.532,10.436-10.732,10.436-21.593c0-4.478-0.216-7.479-0.656-8.994c-1.44-5.051-6.74-9.026-15.893-11.932l-32.829-10.983
		c-10.593-3.473-17.662-7.877-21.208-13.213c-3.545-5.332-5.313-12.168-5.313-20.499c0.059-11.995,4.419-21.149,13.077-27.462
		c7.458-5.366,18.304-8.084,32.539-8.147c20.251,0,35.457,3.19,45.616,9.567l-4.605,14.866c-11.16-6.062-23.738-9.09-37.72-9.09
		c-9.719,0-17.116,1.263-22.192,3.787c-5.083,2.525-7.808,6.599-8.188,12.217c-0.126,1.767-0.187,3.345-0.187,4.735
		c0,4.543,0.955,8.049,2.874,10.511c1.911,2.461,5.621,4.641,11.145,6.534l34.232,11.646c9.405,3.22,16.229,7.433,20.461,12.641
		C1018.993,947.492,1021.106,955.211,1021.106,965.438z"/>
</g>
</svg>
